<?xml version="1.0" encoding="utf-8"?>
<!-- Generator: Adobe Illustrator 28.1.0, SVG Export Plug-In . SVG Version: 6.00 Build 0)  -->
<svg version="1.1" id="Layer_1" xmlns="http://www.w3.org/2000/svg" xmlns:xlink="http://www.w3.org/1999/xlink" x="0px" y="0px"
	 viewBox="0 0 100 103.4" style="enable-background:new 0 0 100 103.4;" xml:space="preserve">
<style type="text/css">
	.st0{fill:#F6F9E5;}
	.st1{fill:#231F20;}
	.st2{stroke:#020202;stroke-width:0.1;stroke-miterlimit:10;}
	.st3{fill:none;stroke:#3D3D3D;stroke-width:0.25;stroke-miterlimit:10;}
</style>
<rect x="-210.8" y="-171.4" class="st0" width="100" height="100"/>
<g>
	<path class="st1" d="M-155.1-161.8l-1.6,0l-9.8,0c-1,0-1.5-0.9-1.9,0l-16,34.5c-2.3,4.8,1.2,10.3,6.5,10.3l0,0c0,0,0,0,0,0
		l-18.6,37.6l0,0l-1-24.3c0-0.8,0.2-1.7,0.6-2.4l28.4-56.6l13.3,0L-155.1-161.8L-155.1-161.8z"/>
	<path class="st1" d="M-141.8-161.8l-1.6,0l-9.8,0c-1,0-1.5-0.9-1.9,0l-16,34.5c-2.3,4.8,1.2,10.3,6.5,10.3l0,0c0,0,0,0,0,0
		l-18.6,37.6l0,0l-1-24.3c0-0.8,0.2-1.7,0.6-2.4l28.4-56.6l13.4,0L-141.8-161.8L-141.8-161.8z"/>
	<path class="st1" d="M-128.3-161.8l-1.6,0l-9.8,0c-1,0-1.5-0.9-1.9,0l-16,34.5c-2.3,4.8,1.2,10.3,6.5,10.3l0,0c0,0,0,0,0,0
		l-18.6,37.6l0,0l-1-24.3c0-0.8,0.2-1.7,0.6-2.4l28.4-56.6l13.4,0L-128.3-161.8L-128.3-161.8z"/>
	<path class="st1" d="M-124.1-161.8l-1.6,0l-0.9,0c-1,0-1.5-0.9-1.9,0l-16,34.5c-2.3,4.8,1.2,10.3,6.5,10.3c0,0,0,0,0,0l-18.6,37.6
		l0,0l-1-24.3c0-0.8,0.2-1.7,0.6-2.4l28.4-56.6l4.5,0L-124.1-161.8L-124.1-161.8z"/>
	<path class="st1" d="M-177.8-67.9L-177.8-67.9"/>
	<path class="st1" d="M-164.7-67.9L-164.7-67.9"/>
</g>
<rect x="0" class="st2" width="100" height="103.4"/>
<g>
	<path class="st3" d="M11.3,13c-1.2,1.2-2,2.9-2,4.8v67.8c0,1.9,0.8,3.6,2,4.8L50,51.7L11.3,13z"/>
	<path class="st3" d="M88.7,13c-1.2-1.2-2.9-2-4.8-2H16.1c-1.9,0-3.6,0.8-4.8,2L50,51.7L88.7,13z"/>
	<path class="st3" d="M11.3,90.4c1.2,1.2,2.9,2,4.8,2h67.8c1.9,0,3.6-0.8,4.8-2L50,51.7L11.3,90.4z"/>
	<path class="st3" d="M90.7,17.8c0-1.9-0.8-3.6-2-4.8L50,51.7l38.7,38.7c1.2-1.2,2-2.9,2-4.8V17.8z"/>
</g>
</svg>
